<?xml version="1.0" encoding="UTF-8"?>
<svg width="200px" height="143px" viewBox="0 0 200 143" version="1.1" xmlns="http://www.w3.org/2000/svg" xmlns:xlink="http://www.w3.org/1999/xlink">
    <!-- Generator: sketchtool 55 (78076) - https://sketchapp.com -->
    <title>BA4ACAA5-636D-4BDE-B22C-32DBE9725C51</title>
    <desc>Created with sketchtool.</desc>
    <defs>
        <polygon id="path-1" points="0.249880298 0.325292642 99.9001948 0.325292642 99.9001948 66.7542621 0.249880298 66.7542621"></polygon>
        <polygon id="path-3" points="0.350723517 0.0349809152 34.3901559 0.0349809152 34.3901559 23.8410827 0.350723517 23.8410827"></polygon>
        <polygon id="path-5" points="0 0.489842579 80.2322686 0.489842579 80.2322686 37.9292166 0 37.9292166"></polygon>
    </defs>
    <g id="Symbols" stroke="none" stroke-width="1" fill="none" fill-rule="evenodd">
        <g id="Misc/logo/white">
            <g id="Logo.white">
                <path d="M114.621739,4.90217391 C114.656522,4.89456522 114.690217,4.88804348 114.726087,4.88043478 C114.690217,4.88804348 114.656522,4.89456522 114.621739,4.90217391" id="Fill-1" fill="#FFFFFF"></path>
                <path d="M116.601087,3.83804348 C116.765217,3.81521739 116.929348,3.7923913 117.094565,3.77065217 C116.929348,3.7923913 116.765217,3.81521739 116.601087,3.83804348" id="Fill-3" fill="#FFFFFF"></path>
                <path d="M116.672826,3.83206522 C116.78913,3.8125 116.905435,3.79402174 117.022826,3.77663043 C116.905435,3.79402174 116.78913,3.8125 116.672826,3.83206522" id="Fill-5" fill="#FFFFFF"></path>
                <path d="M118.495109,3.83641304 C118.845109,3.81141304 119.196196,3.79076087 119.54837,3.77228261 C119.196196,3.79076087 118.845109,3.81141304 118.495109,3.83641304" id="Fill-7" fill="#FFFFFF"></path>
                <path d="M119.68913,3.81956522 C119.968478,3.8076087 120.248913,3.79673913 120.528261,3.78913043 C120.248913,3.79673913 119.968478,3.8076087 119.68913,3.81956522" id="Fill-9" fill="#FFFFFF"></path>
                <path d="M120.652174,3.81141304 C121.013788,3.80380435 121.376459,3.79728261 121.73913,3.79728261 C121.376459,3.79728261 121.013788,3.80380435 120.652174,3.81141304" id="Fill-11" fill="#FFFFFF"></path>
                <path d="M118.672283,3.83423913 C118.904891,3.8125 119.138587,3.79293478 119.371196,3.77445652 C119.138587,3.79293478 118.904891,3.8125 118.672283,3.83423913" id="Fill-13" fill="#FFFFFF"></path>
                <path d="M117.623913,3.83858696 C117.830435,3.81467391 118.038043,3.79076087 118.245652,3.7701087 C118.038043,3.79184783 117.830435,3.81467391 117.623913,3.83858696" id="Fill-15" fill="#FFFFFF"></path>
                <path d="M128.194709,49.4551434 C130.921731,48.18192 132.236026,44.8728551 131.129317,41.9447703 L128.505143,35.0061962 C128.451511,34.864069 128.467285,34.7041758 128.547417,34.5765245 C129.006127,33.8487802 129.098248,32.932849 128.793493,32.1268031 C128.274841,30.7561962 126.783876,30.0804337 125.46958,30.6213069 C124.155284,31.1615221 123.507285,32.7170261 124.025937,34.087633 C124.370443,34.9976423 125.163563,35.638531 126.096126,35.7596023 C126.259546,35.7806582 126.398357,35.8931756 126.45893,36.0524108 L129.015592,42.8139838 C129.695139,44.6103145 128.846494,46.6481299 127.124596,47.3561343 L125.97435,47.8292338 C124.251822,48.5372381 122.29773,47.6528907 121.618813,45.85656 L118.983281,38.8883761 C118.930911,38.7488808 118.945424,38.5916197 119.022401,38.4652843 C119.46092,37.74412 119.544838,36.8426647 119.245762,36.0530688 C118.727741,34.6824619 117.236776,34.0066994 115.92248,34.5475726 C114.608185,35.0884458 113.960186,36.6432918 114.478837,38.0138987 C114.828391,38.9390419 115.636023,39.5805885 116.586884,39.689158 C116.752197,39.7082399 116.894163,39.8207573 116.955998,39.9826245 L119.505719,46.7257735 C120.633249,49.7071561 123.855577,51.1896224 126.722041,50.0657642 L128.849648,55.6922931 C128.857851,55.714007 128.866684,55.7357209 128.877411,55.7574347 C128.883089,55.7692787 129.436444,56.9865724 129.005496,58.1571483 C128.712098,58.9533242 128.011099,59.5850009 126.922057,60.0324386 C124.169796,61.1641927 122.956455,58.2611118 122.830893,57.9354035 L121.406179,54.0802014 C121.306487,53.770943 120.650916,51.8903888 119.212321,51.1830424 C118.528988,50.8474642 117.770571,50.8336462 117.018463,51.1429046 L114.632161,52.1239776 C114.22519,52.2917667 114.025175,52.7721042 114.18607,53.196512 C114.346335,53.6209198 114.806938,53.8295047 115.213909,53.6623736 L117.59958,52.6806427 C117.947871,52.5378574 118.244424,52.5365414 118.533405,52.6773527 C119.268477,53.0359608 119.773247,54.1986408 119.905749,54.6144947 C119.910166,54.6289706 119.914583,54.6421305 119.91963,54.6559484 L121.353809,58.5361543 C121.98351,60.2015437 124.079569,62.9789473 127.503804,61.5708346 C129.023163,60.9450799 130.026394,59.9969068 130.485104,58.7493452 C131.123008,57.0181562 130.440937,55.3435549 130.314113,55.0606164 L128.194709,49.4551434 Z" id="Fill-17" fill="#FFFFFF"></path>
                <path d="M102.863182,29.2200851 L111.192066,25.9490661 L107.907144,17.6537982 C106.644858,14.4659899 108.221905,10.8498723 111.422632,9.59268125 L112.603313,9.12953954 C115.803392,7.87170342 119.434164,9.44238596 120.697097,12.6301942 L123.981372,20.9254622 L132.309608,17.6537982 C135.510335,16.3972521 139.141107,17.9672896 140.403393,21.1550979 L140.869059,22.3310134 C142.131345,25.5188216 140.554297,29.1349392 137.35357,30.3914853 L131.836818,32.5588337 C131.951453,31.7047952 131.858838,30.8152793 131.523999,29.9696264 C131.434622,29.7432159 131.329054,29.5271261 131.21118,29.3207119 L136.159936,27.3765488 C137.691,26.7753677 138.445522,25.0447142 137.841904,23.5198298 L137.376238,22.3445593 C136.771973,20.8196749 135.034954,20.0681985 133.50389,20.6693796 L130.022727,22.0368733 L123.940569,24.4254718 L122.147852,25.12986 L121.555892,23.6340026 L121.042299,22.3387539 L117.669295,13.8196557 C117.065678,12.2941262 115.328659,11.5426498 113.796947,12.144476 L112.616914,12.6082627 C111.085202,13.2094439 110.330681,14.9394523 110.934298,16.4649818 L114.820895,26.2793287 L114.817009,26.2812639 L115.408968,27.7764762 L114.931644,27.9641841 L107.534093,30.869463 L104.057463,32.2350215 C102.525752,32.8368477 101.77123,34.5668561 102.375495,36.0917405 L102.841161,37.267656 C103.444779,38.7925404 105.181798,39.5440169 106.712862,38.9428357 L111.670685,36.9954474 C111.726384,37.2270183 111.796979,37.456654 111.887003,37.6830645 C112.221842,38.5287174 112.763285,39.2414912 113.432316,39.7878436 L107.907144,41.9577722 C104.706417,43.2149632 101.075645,41.6442807 99.8140071,38.4564724 L99.3483408,37.281202 C98.0860551,34.0933937 99.6631027,30.4772761 102.863182,29.2200851" id="Fill-19" fill="#FFFFFF"></path>
                <path d="M75.4894507,58.7002272 C71.9042183,58.6918632 68.3196164,58.6976536 64.7343839,58.6970102 C64.1656397,58.6970102 63.6303139,58.8430589 63.1599335,59.1589613 C62.1535967,59.8358033 61.7355508,61.0691741 62.0697353,62.2806698 C62.3547379,63.3158778 63.4285422,64.1143197 64.6013407,64.1226837 C66.4298975,64.1361948 68.2584543,64.126544 70.0863806,64.1271874 C71.8789968,64.1284742 73.671613,64.1239705 75.4642292,64.1304043 C75.9938802,64.1323345 76.4989402,64.0429038 76.9478824,63.7501633 C78.0380806,63.0385784 78.4958503,61.8270827 78.1446413,60.6220209 C77.8173927,59.4967389 76.7454801,58.7034441 75.4894507,58.7002272" id="Fill-21" fill="#FFFFFF"></path>
                <path d="M73.2481319,9.75623686 C75.5014122,9.78844128 77.7559709,9.79423808 80.0092512,9.75623686 C81.8566214,9.72532061 82.9886949,7.82397149 82.4913752,6.30521091 C82.1500272,5.26371987 81.4507113,4.69563385 80.4765272,4.37036918 C79.9210376,4.40579405 79.368105,4.30338398 78.8075017,4.49403417 C78.4878875,4.60224103 78.1273626,4.34524973 77.753414,4.35040244 C76.1566213,4.37294554 74.5585502,4.35233471 72.9617576,4.34782609 C71.3202189,4.73556734 70.5122342,5.86014578 70.6720413,7.53541986 C70.7807101,8.6715919 71.963922,9.73755829 73.2481319,9.75623686" id="Fill-23" fill="#FFFFFF"></path>
                <path d="M51.219578,26.2139252 C49.7645638,26.0315406 48.2934103,26.0682753 46.8377753,26.1823463 C45.4386277,26.291906 44.4926202,27.5376639 44.5695919,28.9600063 C44.6515296,30.4738633 45.7055458,31.5101689 47.1785615,31.5198359 C47.7601948,31.5237027 48.3424487,31.5204804 48.924082,31.5204804 L48.924082,31.5172581 C49.5764796,31.5172581 50.2294979,31.5288585 50.8818955,31.5146802 C52.0805442,31.4889014 53.1804952,30.3958825 53.2537425,29.1746144 C53.3468535,27.6291785 52.520028,26.3763314 51.219578,26.2139252" id="Fill-25" fill="#FFFFFF"></path>
                <g id="Group-29" transform="translate(54.347826, 0.000000)">
                    <mask id="mask-2" fill="white">
                        <use xlink:href="#path-1"></use>
                    </mask>
                    <g id="Clip-28"></g>
                    <path d="M87.8443506,54.7236183 C82.1742208,60.3818959 74.6346104,63.4987437 66.6157792,63.4987437 C66.3930519,63.4987437 66.1703247,63.4948558 65.9482468,63.4903198 C65.882013,63.4890238 65.8157792,63.4870798 65.7495455,63.4851359 C65.5826623,63.4805999 65.4157792,63.47412 65.2501948,63.4669921 C65.1865584,63.4637521 65.1235714,63.4618081 65.0605844,63.4585681 C64.8501948,63.4475523 64.6404545,63.4352404 64.4313636,63.4203365 C64.356039,63.4151526 64.2807143,63.4080247 64.2053896,63.4021927 C64.0657792,63.3911768 63.9261688,63.379513 63.7872078,63.3665531 C63.6911039,63.3574812 63.595,63.3484093 63.4988961,63.3386894 C63.3761688,63.3257295 63.2540909,63.3121217 63.1313636,63.2978658 C62.9547403,63.277778 62.7781169,63.2557462 62.6021429,63.2324185 C62.5047403,63.2194586 62.4066883,63.2071467 62.3092857,63.1928909 C62.1800649,63.1747471 62.0508442,63.1546593 61.9222727,63.1345715 C61.8527922,63.1235556 61.7826623,63.1125397 61.7125325,63.1008758 C61.2391558,63.0244126 60.769026,62.9356375 60.3014935,62.8364946 C60.282013,62.8319586 60.2625325,62.8280707 60.2437013,62.8241827 C60.0774675,62.7885431 59.9118831,62.7516074 59.7469481,62.7133758 C59.7462987,62.7127278 59.745,62.7127278 59.7437013,62.7120798 C59.2313636,62.5934971 58.7229221,62.4606584 58.219026,62.3148599 C58.2183766,62.3148599 58.2177273,62.314212 58.2177273,62.314212 C53.4177273,60.9268583 49.019026,58.3478449 45.3878571,54.7236183 C39.7170779,49.0653407 36.5943506,41.5421384 36.5943506,33.540069 C36.5943506,25.5373516 39.7170779,18.0141492 45.3878571,12.3558717 C49.5274675,8.2249143 54.6631818,5.45085493 60.2540909,4.25336329 C60.2748701,4.24882734 60.2956494,4.24493938 60.3164286,4.24040343 C60.7807143,4.14126045 61.2488961,4.05378135 61.7196753,3.97731814 C61.7891558,3.96565426 61.8586364,3.95463838 61.9287662,3.94427048 C62.0566883,3.92418269 62.1846104,3.90474289 62.3131818,3.88595109 C62.4112338,3.87234323 62.5092857,3.85938336 62.607987,3.84642349 C62.7813636,3.82374373 62.956039,3.80171196 63.1300649,3.78162416 C63.2540909,3.76736831 63.3774675,3.75376045 63.5014935,3.74080059 C63.5975974,3.73108069 63.6930519,3.72200878 63.7891558,3.71293687 C63.9281169,3.69997701 64.0677273,3.68831313 64.2066883,3.67729724 C64.282013,3.6714653 64.3573377,3.66498537 64.4326623,3.65915343 C64.6424026,3.64424958 64.8514935,3.63193771 65.0618831,3.62092182 C65.1242208,3.61768186 65.1865584,3.61573788 65.2488961,3.6131459 C65.4157792,3.60536998 65.5833117,3.59953804 65.7508442,3.5943541 C65.8164286,3.59241012 65.8826623,3.59046614 65.9482468,3.58917015 C66.170974,3.5846342 66.3930519,3.58139423 66.6157792,3.58139423 C74.6346104,3.58139423 82.1742208,6.69759406 87.8443506,12.3558717 C93.5144805,18.0141492 96.6372078,25.5373516 96.6372078,33.540069 C96.6372078,41.5421384 93.5144805,49.0653407 87.8443506,54.7236183 M66.6157792,0.325227843 C61.120974,0.325227843 55.9372078,1.65491012 51.3696753,4.00842182 C46.8527922,4.00842182 42.3359091,4.00842182 37.8183766,4.00842182 C37.2462987,4.00906982 36.6729221,3.99481396 36.1008442,4.01554975 C35.3092857,4.04406145 34.706039,4.41536162 34.2670779,5.07113085 C33.7398052,5.85844273 33.8599351,6.72999373 33.9514935,7.58599289 C34.0404545,8.41477634 34.7385065,9.11784908 35.5469481,9.34529473 C36.2761688,9.55070861 37.0177273,9.41139005 37.7501948,9.49303721 C39.6365584,9.70428303 40.7475974,11.8957964 39.7794156,13.5216116 C39.1878571,14.5149854 38.2859091,14.939421 37.1612338,14.939421 C30.270974,14.942013 23.382013,14.940069 16.4924026,14.942661 C16.1066883,14.942661 15.7183766,14.9180372 15.3521429,15.0994753 C13.9540909,15.7895882 13.3664286,17.7329202 14.1677273,19.0833382 C14.5911039,19.7980748 15.1904545,20.2924937 16.0612338,20.3158215 C17.1683766,20.3456292 18.2768182,20.3462772 19.3846104,20.3482212 C19.9495455,20.3495171 20.4956494,20.4473641 20.969026,20.748681 C22.032013,21.4238901 22.5592857,22.690717 22.2443506,23.7210263 C21.8417532,25.0351568 20.8385065,25.8010849 19.4774675,25.8179327 C18.6644805,25.8276526 17.8521429,25.8205247 17.0391558,25.8205247 C13.1235714,25.8205247 9.20733766,25.8380205 5.29175325,25.8127487 C3.45668831,25.8010849 2.47941558,27.2195422 2.40863636,28.4099059 C2.31967532,29.8944586 3.65668831,31.2649645 5.1411039,31.2520046 C9.46318182,31.214421 13.7852597,31.2364528 18.1073377,31.2409887 C19.2242208,31.2422847 20.2865584,31.9790531 20.6885065,32.9017956 C21.457987,34.6701693 20.1495455,36.7508758 18.0748701,36.7074603 C15.8040909,36.6595088 13.5313636,36.6964444 11.2592857,36.6964444 C8.54435065,36.6964444 5.82876623,36.6970924 3.11383117,36.6964444 C1.12227273,36.6964444 -0.109545455,38.4343625 0.343701299,40.1308089 C0.663831169,41.3283006 1.71058442,42.1726359 3.06448052,42.1732839 C9.12357143,42.1771718 15.182013,42.1836518 21.2404545,42.1687479 C22.5943506,42.1661559 23.8807143,43.3500397 23.9274675,44.774977 C23.9748701,46.2005623 22.8833117,47.6099477 21.1917532,47.6105957 C19.4742208,47.6105957 17.756039,47.5989319 16.0385065,47.6164277 C14.5495455,47.6313315 13.3657792,48.8035514 13.3385065,50.2518165 C13.3086364,51.8795757 14.5131818,53.0887312 16.1924026,53.0919712 C19.4612338,53.0984511 22.7313636,53.0939151 26.0001948,53.0939151 C28.3833117,53.0939151 30.7657792,53.102987 33.1488961,53.0887312 C33.8196753,53.0841952 34.4281169,53.2189778 34.9508442,53.6485974 C35.8618831,54.3963817 36.2514935,55.6139611 35.8865584,56.6138148 C35.5099351,57.6467161 34.607987,58.5215071 33.2605844,58.5001233 C32.5047403,58.4878115 31.7456494,58.4418039 30.9924026,58.5526108 C29.2735714,58.8066242 28.2118831,60.6572931 28.8677273,62.2461727 C29.2729221,63.2285305 30.2716234,63.9802028 31.6670779,63.9763148 C38.8625325,63.958171 46.057987,63.9633549 53.2540909,63.9672429 C57.3443506,65.7582964 61.8631818,66.7542621 66.6157792,66.7542621 C84.9982468,66.7542621 99.9001948,51.8834636 99.9001948,33.540069 C99.9001948,15.1960263 84.9982468,0.325227843 66.6157792,0.325227843" id="Fill-27" fill="#FFFFFF" mask="url(#mask-2)"></path>
                </g>
                <path d="M115.217391,5.11195652 C115.577028,4.94673913 115.939682,4.8 116.304348,4.67065217 C115.939682,4.79891304 115.577028,4.94673913 115.217391,5.11195652" id="Fill-30" fill="#FFFFFF"></path>
                <path d="M117.497283,3.85869565 C117.788587,3.81956522 118.079891,3.78369565 118.372283,3.75 C118.079891,3.78369565 117.788587,3.82065217 117.497283,3.85869565" id="Fill-32" fill="#FFFFFF"></path>
                <path d="M118.832609,3.81956522 C118.958696,3.80978261 119.084783,3.79782609 119.21087,3.78913043 C119.084783,3.79782609 118.958696,3.80978261 118.832609,3.81956522" id="Fill-34" fill="#FFFFFF"></path>
                <path d="M116.526087,3.85271739 C116.740217,3.81902174 116.955435,3.78641304 117.169565,3.75597826 C116.955435,3.78641304 116.740217,3.81902174 116.526087,3.85271739" id="Fill-36" fill="#FFFFFF"></path>
                <path d="M117.694022,3.82771739 C117.853804,3.81032609 118.014674,3.79619565 118.175543,3.78097826 C118.014674,3.79619565 117.853804,3.81141304 117.694022,3.82771739" id="Fill-38" fill="#FFFFFF"></path>
                <path d="M119.942935,3.80869565 C120.053804,3.80543478 120.163587,3.80217391 120.274457,3.8 C120.163587,3.80217391 120.053804,3.80543478 119.942935,3.80869565" id="Fill-40" fill="#FFFFFF"></path>
                <path d="M119.952174,3.81141304 C120.056522,3.80597826 120.16087,3.80271739 120.265217,3.79728261 C120.16087,3.80271739 120.056522,3.80597826 119.952174,3.81141304" id="Fill-42" fill="#FFFFFF"></path>
                <path d="M22.9304944,130.434783 C23.8832128,130.434783 24.5239516,130.877918 25,131.44103 L24.2610684,132.259573 C23.8502747,131.748064 23.472419,131.509403 22.84846,131.509403 C21.2550029,131.509403 19.7597385,133.452879 19.7597385,135.72016 C19.7597385,137.221145 20.384319,138.039044 21.6490168,138.039044 C22.3556318,138.039044 22.9304944,137.698468 23.4233226,137.305644 L23.9814055,138.158374 C23.4071643,138.618926 22.5855769,139.130435 21.4190718,139.130435 C19.677704,139.130435 18.4782609,137.919713 18.4782609,135.805949 C18.4782609,132.71948 20.6142641,130.434783 22.9304944,130.434783" id="Fill-44" fill="#FFFFFF"></path>
                <path d="M26.3436043,135.72016 C26.3436043,137.2205 26.9893266,138.039044 28.1586255,138.039044 C29.729355,138.039044 31.2479249,136.163296 31.2479249,133.844412 C31.2479249,132.344717 30.6022026,131.508758 29.4329037,131.508758 C27.8793407,131.508758 26.3436043,133.401277 26.3436043,135.72016 M25,135.805304 C25,132.668522 27.251445,130.434783 29.572216,130.434783 C31.4050639,130.434783 32.6086957,131.696462 32.6086957,133.759268 C32.6086957,136.896695 30.3400842,139.130435 28.0193132,139.130435 C26.1864653,139.130435 25,137.868756 25,135.805304" id="Fill-46" fill="#FFFFFF"></path>
                <path d="M35.3521001,130.644197 L36.4394295,130.644197 L36.318035,131.919181 L36.3872168,131.919181 C37.3361827,131.080862 38.2675267,130.434783 39.3202652,130.434783 C40.7345767,130.434783 41.3043478,131.238088 41.3043478,132.547424 C41.3043478,132.949077 41.2691043,133.245692 41.1659842,133.71737 L40.0962765,139.130435 L38.7850851,139.130435 L39.8202018,133.892432 C39.9063528,133.43793 39.9585655,133.193504 39.9585655,132.896888 C39.9585655,132.041394 39.5787181,131.587553 38.7159032,131.587553 C38.0606339,131.587553 37.2500317,132.05857 36.1972931,133.123479 L35.0074963,139.130435 L33.6956522,139.130435 L35.3521001,130.644197 Z" id="Fill-48" fill="#FFFFFF"></path>
                <path d="M44.5653622,131.632029 L43.4782609,131.632029 L43.6467992,130.651458 L44.8103509,130.565569 L45.3611412,128.26087 L46.3561545,128.26087 L45.9432066,130.565569 L47.826087,130.565569 L47.6424902,131.632029 L45.7289139,131.632029 L44.8561053,136.413206 C44.8254093,136.620122 44.8103509,136.808818 44.8103509,137.032 C44.8103509,137.720417 45.0553397,138.063975 45.7596099,138.063975 C46.0497738,138.063975 46.3104001,137.926682 46.5403305,137.806306 L46.8003776,138.752391 C46.4633009,138.92417 45.9739026,139.130435 45.3918372,139.130435 C44.0904431,139.130435 43.6161032,138.305376 43.6161032,137.272751 C43.6161032,136.929193 43.6618576,136.653957 43.6925536,136.344234 L44.5653622,131.632029 Z" id="Fill-50" fill="#FFFFFF"></path>
                <path d="M50.5880594,128.178922 C50.5880594,127.606598 50.9884482,127.173913 51.4477177,127.173913 C51.8329657,127.173913 52.173913,127.46827 52.173913,127.971102 C52.173913,128.54277 51.774085,128.95841 51.3142547,128.95841 C50.9290067,128.95841 50.5880594,128.681098 50.5880594,128.178922 L50.5880594,128.178922 Z M50.3508542,130.708816 L51.4920184,130.708816 L50.0396276,139.130435 L48.9130435,139.130435 L50.3508542,130.708816 Z" id="Fill-52" fill="#FFFFFF"></path>
                <path d="M58.3826495,136.131736 L59.13004,132.687125 C58.6083141,131.842575 58.0523766,131.494856 57.4089364,131.494856 C55.7740196,131.494856 54.2608169,133.482179 54.2608169,135.584783 C54.2608169,136.893585 54.8345181,137.539528 55.7740196,137.539528 C56.5733854,137.539528 57.5826258,137.058986 58.3826495,136.131736 L58.3826495,136.131736 Z M60.8695652,130.63339 L59.0951706,139.0626 C58.6431835,141.199035 57.2523529,142.391304 55.1305795,142.391304 C54.0002829,142.391304 52.9917004,141.927679 52.173913,141.281736 L52.8002474,140.403981 C53.4436875,140.934644 54.2437112,141.365063 55.1825547,141.365063 C56.6260185,141.365063 57.4780174,140.420897 57.8431598,138.963609 L58.2609354,137.307089 L58.2083022,137.307089 C57.374067,138.068938 56.4174597,138.598974 55.3391383,138.598974 C53.9134382,138.598974 52.8870921,137.638518 52.8870921,135.767101 C52.8870921,132.819321 55.0786043,130.434783 57.3563033,130.434783 C58.2438296,130.434783 58.9912201,130.915324 59.391232,131.643341 L59.4432072,131.643341 L59.7734801,130.63339 L60.8695652,130.63339 Z" id="Fill-54" fill="#FFFFFF"></path>
                <path d="M63.300126,135.72016 C63.300126,137.2205 63.9458484,138.039044 65.1151472,138.039044 C66.6858767,138.039044 68.2044467,136.163296 68.2044467,133.844412 C68.2044467,132.344717 67.5587243,131.508758 66.3894255,131.508758 C64.8358624,131.508758 63.300126,133.401277 63.300126,135.72016 M61.9565217,135.805304 C61.9565217,132.668522 64.2079667,130.434783 66.5287378,130.434783 C68.3615857,130.434783 69.5652174,131.696462 69.5652174,133.759268 C69.5652174,136.896695 67.2966059,139.130435 64.9758349,139.130435 C63.142987,139.130435 61.9565217,137.868756 61.9565217,135.805304" id="Fill-56" fill="#FFFFFF"></path>
                <path d="M79.3214471,134.168862 C79.3689895,133.896015 79.4008851,133.640583 79.4008851,133.316133 C79.4008851,132.378904 79.0193419,131.475216 77.9054046,131.475216 C76.7764222,131.475216 75.6624848,132.531776 75.2652948,134.168862 L79.3214471,134.168862 Z M78.0486337,130.434783 C79.78303,130.434783 80.4347826,131.730648 80.4347826,133.435463 C80.4347826,134.100489 80.2602597,134.7481 80.1645731,135.055779 L75.1377126,135.055779 C74.8518562,137.186959 75.8857537,138.090646 77.2380051,138.090646 C77.8422153,138.090646 78.478321,137.766196 78.9711977,137.374018 L79.4484275,138.243518 C78.8285704,138.721486 77.9535488,139.130435 76.9515468,139.130435 C75.1220657,139.130435 73.9130435,137.885526 73.9130435,135.669203 C73.9130435,132.549192 76.028381,130.434783 78.0486337,130.434783 L78.0486337,130.434783 Z" id="Fill-58" fill="#FFFFFF"></path>
                <path d="M84.2646329,130.644197 L85.3520557,130.644197 L85.2306507,131.919181 L85.2998385,131.919181 C86.2488857,131.080862 87.1803096,130.434783 88.2331385,130.434783 C89.6475713,130.434783 90.2173913,131.238088 90.2173913,132.547424 C90.2173913,132.949077 90.1821447,133.245692 90.0790158,133.71737 L89.0092163,139.130435 L87.6979124,139.130435 L88.733118,133.892432 C88.8199291,133.43793 88.8714935,133.193504 88.8714935,132.896888 C88.8714935,132.041394 88.4916135,131.587553 87.6287247,131.587553 C86.9733991,131.587553 86.1627274,132.05857 85.1098985,133.123479 L83.9199996,139.130435 L82.6086957,139.130435 L84.2646329,130.644197 Z" id="Fill-60" fill="#FFFFFF"></path>
                <path d="M96.7388408,131.632029 L95.6521739,131.632029 L95.8201555,130.651458 L96.9838622,130.565569 L97.5353051,128.26087 L98.530451,128.26087 L98.1168688,130.565569 L100,130.565569 L99.8163788,131.632029 L97.9025475,131.632029 L97.0296227,136.413206 C96.9995018,136.620122 96.9838622,136.808818 96.9838622,137.032 C96.9838622,137.720417 97.2288836,138.063975 97.9332476,138.063975 C98.2240295,138.063975 98.4846905,137.926682 98.7140722,137.806306 L98.974154,138.752391 C98.6376116,138.92417 98.1475689,139.130435 97.5660052,139.130435 C96.2644377,139.130435 95.7894554,138.305376 95.7894554,137.272751 C95.7894554,136.929193 95.8357951,136.653957 95.8664952,136.344234 L96.7388408,131.632029 Z" id="Fill-62" fill="#FFFFFF"></path>
                <path d="M101.343604,135.72016 C101.343604,137.2205 101.989327,138.039044 103.158625,138.039044 C104.729355,138.039044 106.247925,136.163296 106.247925,133.844412 C106.247925,132.344717 105.602203,131.508758 104.432904,131.508758 C102.879341,131.508758 101.343604,133.401277 101.343604,135.72016 M100,135.805304 C100,132.668522 102.251445,130.434783 104.572216,130.434783 C106.405064,130.434783 107.608696,131.696462 107.608696,133.759268 C107.608696,136.896695 105.340084,139.130435 103.019313,139.130435 C101.186465,139.130435 100,137.868756 100,135.805304" id="Fill-64" fill="#FFFFFF"></path>
                <path d="M114.147061,136.537575 L114.894991,132.953804 C114.41886,132.111594 113.841206,131.764838 113.212791,131.764838 C111.565288,131.764838 110.0373,133.812885 110.0373,136.025875 C110.0373,137.412899 110.63166,138.073298 111.548582,138.073298 C112.414741,138.073298 113.314956,137.577843 114.147061,136.537575 L114.147061,136.537575 Z M115.437947,130.311586 L116.083712,127.173913 L117.391304,127.173913 L114.945753,138.932378 L113.875904,138.932378 L114.011482,137.743411 L113.943372,137.743411 C113.145323,138.568753 112.108887,139.130435 111.073093,139.130435 C109.62928,139.130435 108.695652,138.106411 108.695652,136.223932 C108.695652,133.135617 110.869405,130.7077 113.162029,130.7077 C114.045538,130.7077 114.708008,131.170042 115.115386,131.880423 L115.166148,131.880423 L115.437947,130.311586 Z" id="Fill-66" fill="#FFFFFF"></path>
                <path d="M123.730675,136.453559 L124.450685,132.753666 C123.992553,131.884165 123.435985,131.526174 122.830509,131.526174 C121.243146,131.526174 119.770934,133.640583 119.770934,135.92528 C119.770934,137.357247 120.342979,138.039044 121.227049,138.039044 C122.061591,138.039044 122.945042,137.527535 123.730675,136.453559 M122.7816,130.434783 C123.632239,130.434783 124.320055,130.929521 124.696466,131.679691 L124.76209,131.679691 L125.072257,130.639257 L126.086957,130.639257 L124.500212,138.92596 L123.468798,138.92596 L123.600046,137.698468 L123.534422,137.698468 C122.764885,138.550553 121.766901,139.130435 120.768918,139.130435 C119.377808,139.130435 118.478261,138.07323 118.478261,136.129754 C118.478261,132.94137 120.572664,130.434783 122.7816,130.434783" id="Fill-68" fill="#FFFFFF"></path>
                <path d="M127.984976,136.913466 C128.491811,137.629449 129.235125,138.124188 130.09668,138.124188 C131.042601,138.124188 131.837046,137.493348 131.837046,136.743178 C131.837046,136.146525 131.482326,135.805304 130.33316,135.174465 C129.066393,134.475252 128.457936,133.844412 128.457936,132.907183 C128.457936,131.44103 129.74196,130.434783 131.27972,130.434783 C132.276132,130.434783 133.087195,130.894689 133.695652,131.542944 L132.951698,132.276344 C132.512612,131.815792 131.98916,131.457801 131.245846,131.457801 C130.367034,131.457801 129.690829,132.054453 129.690829,132.753666 C129.690829,133.452234 130.400908,133.810226 131.144223,134.21982 C132.614235,135.038363 133.069938,135.669203 133.069938,136.57289 C133.069938,138.124188 131.769298,139.130435 129.995696,139.130435 C128.897022,139.130435 127.731878,138.431222 127.173913,137.561076 L127.984976,136.913466 Z" id="Fill-70" fill="#FFFFFF"></path>
                <path d="M140.187729,132.884251 L139.397156,136.829653 C139.861357,137.680243 140.445185,138.019964 141.098578,138.019964 C142.765542,138.019964 144.294677,135.911504 144.294677,133.615811 C144.294677,132.220894 143.710199,131.523435 142.765542,131.523435 C141.991873,131.523435 140.977651,132.033661 140.187729,132.884251 L140.187729,132.884251 Z M138.795774,139.687044 L138.262657,142.391304 L136.956522,142.391304 L139.328241,130.639388 L140.410727,130.639388 L140.308005,131.72804 L140.359366,131.72804 C141.2013,131.030582 142.197968,130.434783 143.246648,130.434783 C144.707517,130.434783 145.652174,131.506707 145.652174,133.428578 C145.652174,136.608962 143.452743,139.108617 141.149939,139.108617 C140.273547,139.108617 139.568793,138.615764 139.139049,137.918305 L139.104592,137.918305 L138.795774,139.687044 Z" id="Fill-72" fill="#FFFFFF"></path>
                <path d="M151.991118,136.453559 L152.711068,132.753666 C152.252974,131.884165 151.696452,131.526174 151.091025,131.526174 C149.50379,131.526174 148.031699,133.640583 148.031699,135.92528 C148.031699,137.357247 148.604316,138.039044 149.487695,138.039044 C150.322169,138.039044 151.205548,137.527535 151.991118,136.453559 M151.04212,130.434783 C151.893308,130.434783 152.580449,130.929521 152.956829,131.679691 L153.022448,131.679691 L153.33321,130.639257 L154.347826,130.639257 L152.760592,138.92596 L151.729261,138.92596 L151.860499,137.698468 L151.79488,137.698468 C151.026025,138.550553 150.027503,139.130435 149.029601,139.130435 C147.638604,139.130435 146.73913,138.07323 146.73913,136.129754 C146.73913,132.94137 148.833363,130.434783 151.04212,130.434783" id="Fill-74" fill="#FFFFFF"></path>
                <path d="M157.228544,130.644197 L158.406473,130.644197 L158.200724,132.267984 L158.274963,132.267984 C159.003922,131.238088 159.976102,130.434783 161.097468,130.434783 C161.433312,130.434783 161.695624,130.486971 161.956522,130.592009 L161.452402,131.779131 C161.265036,131.69193 161.004139,131.639741 160.667587,131.639741 C159.770353,131.639741 158.7607,132.390858 157.994975,133.769558 L156.855226,139.130435 L155.434783,139.130435 L157.228544,130.644197 Z" id="Fill-76" fill="#FFFFFF"></path>
                <path d="M163.043623,131.632029 L161.956522,131.632029 L162.12506,130.651458 L163.288612,130.565569 L163.839402,128.26087 L164.834415,128.26087 L164.421467,130.565569 L166.304348,130.565569 L166.120751,131.632029 L164.207175,131.632029 L163.334366,136.413206 C163.30367,136.620122 163.288612,136.808818 163.288612,137.032 C163.288612,137.720417 163.533601,138.063975 164.237871,138.063975 C164.528035,138.063975 164.788661,137.926682 165.018591,137.806306 L165.278638,138.752391 C164.941562,138.92417 164.452163,139.130435 163.870098,139.130435 C162.568704,139.130435 162.094364,138.305376 162.094364,137.272751 C162.094364,136.929193 162.140118,136.653957 162.170814,136.344234 L163.043623,131.632029 Z" id="Fill-78" fill="#FFFFFF"></path>
                <path d="M172.799209,134.168862 C172.847349,133.896015 172.87864,133.640583 172.87864,133.316133 C172.87864,132.378904 172.497132,131.475216 171.383297,131.475216 C170.254419,131.475216 169.141186,132.531776 168.743431,134.168862 L172.799209,134.168862 Z M171.527115,130.434783 C173.260749,130.434783 173.913043,131.730648 173.913043,133.435463 C173.913043,134.100489 173.737935,134.7481 173.642257,135.055779 L168.61586,135.055779 C168.33003,137.186959 169.363833,138.090646 170.715959,138.090646 C171.320114,138.090646 171.956161,137.766196 172.448992,137.374018 L172.926178,138.243518 C172.306378,138.721486 171.431437,139.130435 170.429527,139.130435 C168.600215,139.130435 167.391304,137.885526 167.391304,135.669203 C167.391304,132.549192 169.507048,130.434783 171.527115,130.434783 L171.527115,130.434783 Z" id="Fill-80" fill="#FFFFFF"></path>
                <path d="M175.811063,136.913466 C176.317897,137.629449 177.061851,138.124188 177.922767,138.124188 C178.869327,138.124188 179.663133,137.493348 179.663133,136.743178 C179.663133,136.146525 179.308413,135.805304 178.159247,135.174465 C176.89248,134.475252 176.284023,133.844412 176.284023,132.907183 C176.284023,131.44103 177.568686,130.434783 179.105807,130.434783 C180.102219,130.434783 180.913282,130.894689 181.521739,131.542944 L180.777785,132.276344 C180.338699,131.815792 179.815247,131.457801 179.071933,131.457801 C178.193121,131.457801 177.517555,132.054453 177.517555,132.753666 C177.517555,133.452234 178.226995,133.810226 178.97031,134.21982 C180.440322,135.038363 180.896665,135.669203 180.896665,136.57289 C180.896665,138.124188 179.595385,139.130435 177.821783,139.130435 C176.723749,139.130435 175.557965,138.431222 175,137.561076 L175.811063,136.913466 Z" id="Fill-82" fill="#FFFFFF"></path>
                <g id="Group-86" transform="translate(165.217391, 90.217391)">
                    <mask id="mask-4" fill="white">
                        <use xlink:href="#path-3"></use>
                    </mask>
                    <g id="Clip-85"></g>
                    <path d="M3.49125513,23.7895358 L0.351632486,23.7895358 L0.351632486,23.1025206 C0.351632486,18.6618038 0.348351107,14.221087 0.354257588,9.78101645 C0.356226415,8.30293184 0.571484824,6.85328437 1.17328958,5.49217979 C2.52456112,2.43195652 4.93440525,0.71086369 8.24859721,0.170558167 C9.4207055,-0.020746181 10.5888761,-0.020746181 11.7544217,0.242297297 C13.9030681,0.727021152 15.4925677,1.99182726 16.7716489,3.69740893 C16.9166858,3.89065217 17.0610664,4.08389542 17.2113536,4.27326087 C17.2343232,4.3029906 17.286169,4.31139248 17.3865792,4.35857227 C17.5467104,4.14335488 17.7127482,3.91779671 17.8800984,3.69288484 C19.0508942,2.11397767 20.5038884,0.89699765 22.4471206,0.356045828 C26.6269401,-0.806645123 32.9160295,1.11027615 34.1334208,7.45692714 C34.2968335,8.31133373 34.3709926,9.19417744 34.3755865,10.0647415 C34.3998687,14.3955875 34.3873995,18.7270799 34.3873995,23.057926 L34.3873995,23.6809577 C33.8499098,23.8793713 31.9270221,23.898114 31.2425267,23.7106874 C31.2425267,23.4541069 31.2425267,23.174906 31.2425267,22.8957051 C31.2425267,18.6301351 31.2438392,14.3645652 31.2412141,10.098349 C31.2405578,9.15669213 31.2169319,8.20986486 30.8940443,7.31280259 C30.681411,6.71885429 30.4346514,6.12425969 30.1078261,5.58589307 C28.1540935,2.36861927 24.4592617,2.50757344 22.157703,3.73812573 C20.497982,4.62613984 19.3547498,5.94394242 19.0167678,7.82660987 C18.9360459,8.27514101 18.9321083,8.74047591 18.931452,9.19805523 C18.9255455,13.7919448 18.9275144,18.3858343 18.9275144,22.9797239 L18.9275144,23.7901821 L15.7819852,23.7901821 C15.7590156,23.5187368 15.7163577,23.2472914 15.7163577,22.9751998 C15.7117637,18.3813102 15.7157014,13.7874207 15.7084824,9.19417744 C15.7071698,8.69329612 15.7104512,8.17754994 15.5969155,7.69476498 C15.00758,5.19617509 13.2973257,3.78853702 10.8710747,3.13448296 C9.98313372,2.89470623 9.062379,2.88436545 8.16,3.04723267 C6.04876128,3.42854877 4.8011813,4.80193302 4.02611977,6.66585781 C3.62644791,7.62754994 3.49059885,8.64611633 3.49125513,9.68342538 C3.4919114,14.102168 3.49125513,18.5209107 3.49125513,22.9402996 L3.49125513,23.7895358 Z" id="Fill-84" fill="#FFFFFF" mask="url(#mask-4)"></path>
                </g>
                <path d="M88.9625112,93.18361 C88.0120159,93.1414406 87.0175222,93.2910104 86.0715561,93.6711945 C80.0735358,96.0807842 78.0936068,103.844578 82.2954562,108.941812 C85.7998011,113.193022 91.8366435,113.004577 95.2406979,109.538774 C97.4438542,107.295227 98.3490571,104.618124 98.0268333,101.460686 C97.6463764,97.7326412 94.2753208,93.0847754 88.9625112,93.18361 M80.0618892,111.02986 L80.0618892,116.896028 L80.0618892,122.678516 C79.4523816,122.868938 77.8833202,122.875527 77.2298142,122.695647 C77.2142854,122.47887 77.1819336,122.241008 77.1819336,122.003146 C77.1793455,115.558465 77.1638166,109.113785 77.1845217,102.669104 C77.2019917,97.3485037 80.5174023,92.4463033 85.3294062,90.8787851 C93.5389942,88.2056363 99.7485951,94.1100205 100.850497,100.092155 C101.913576,105.861465 99.3060228,110.915871 94.7586564,113.6246 C92.9133108,114.724301 90.8945596,115.136112 88.7690476,115.057044 C85.5752797,114.937783 82.874553,113.695102 80.6487505,111.367216 C80.5154611,111.228847 80.3698781,111.102998 80.2294714,110.971218 C80.1738263,110.990326 80.1175342,111.010093 80.0618892,111.02986" id="Fill-87" fill="#FFFFFF"></path>
                <path d="M140.200129,93.1888295 C139.910498,93.2127049 139.401058,93.2087257 138.908427,93.3002483 C135.535651,93.9289687 133.152015,95.9039997 131.91074,99.141114 C130.211744,103.571338 131.723902,108.497641 135.934539,111.048999 C138.837959,112.807825 141.904943,112.814457 144.770866,110.933601 C148.872245,108.242306 150.10253,103.477826 148.587786,99.1994763 C147.309015,95.5889763 144.013171,93.2080625 140.200129,93.1888295 M152.162271,114.649551 L149.241395,114.649551 C149.09658,113.478327 149.270488,112.297155 149.123086,110.986658 C148.798545,111.306987 148.566452,111.528498 148.341471,111.757304 C146.764017,113.35696 144.927318,114.508288 142.738278,114.940699 C138.05893,115.86521 134.134044,114.475128 131.044433,110.737292 C129.175409,108.477082 128.28195,105.84216 128.261262,102.871654 C128.23023,98.4699483 130.041069,95.0292294 133.415786,92.4248148 C135.863425,90.5360007 138.664698,89.935135 141.674143,90.3350489 C146.176998,90.933925 149.289883,93.4932416 151.248123,97.6104318 C151.950219,99.0873942 152.175201,100.68705 152.173908,102.322519 C152.168736,106.11739 152.165503,109.911599 152.162271,113.70647 C152.161624,113.994966 152.162271,114.283461 152.162271,114.649551" id="Fill-89" fill="#FFFFFF"></path>
                <path d="M107.388493,114.130435 L104.49323,114.130435 C104.319814,113.604863 104.289825,83.4278329 104.467152,82.6789573 C105.402034,82.5760436 106.353865,82.5967558 107.38067,82.673132 L107.38067,94.0260073 C107.745104,94.0072369 107.844199,93.7580432 107.990885,93.5936401 C109.170896,92.2628812 110.573218,91.2492778 112.321068,90.8311503 C116.21771,89.8997485 119.560204,90.8900506 122.291179,93.820827 C124.044896,95.7030483 124.940661,97.960031 124.970651,100.501806 C125.022806,104.882437 124.989557,109.263715 124.989557,113.644345 C124.989557,113.79192 124.960871,113.940141 124.941965,114.123315 L122.004326,114.123315 L122.004326,113.260522 C122.004326,109.120671 122.006933,104.98082 122.003022,100.840969 C122.000414,97.9593837 120.682844,95.7910752 118.241983,94.3218034 C114.570259,92.1127177 108.815589,93.7962313 107.610805,98.5703937 C107.457599,99.1788146 107.40088,99.8247764 107.398272,100.454557 C107.380018,104.725801 107.388493,108.997045 107.388493,113.267642 L107.388493,114.130435 Z" id="Fill-91" fill="#FFFFFF"></path>
                <path d="M158.54865,93.79299 C160.085344,91.4998149 162.254915,90.3201685 165.1728,90.2173913 C165.245458,91.2359983 165.212185,92.1740856 165.191813,93.1717444 C164.912044,93.2267335 164.675734,93.2980884 164.43467,93.3177273 C162.026074,93.5186993 158.817555,95.9702952 158.798541,99.1498416 C158.795146,99.7920354 158.74965,100.434229 158.748292,101.075768 C158.744217,105.131212 158.746934,109.186656 158.744217,113.241445 C158.744217,113.522937 158.712981,113.804428 158.693967,114.130435 L155.57712,114.130435 C155.41958,113.644043 155.374084,91.5567679 155.537056,90.6527214 C156.440195,90.6127889 157.360989,90.5990416 158.372776,90.673015 L158.372776,93.7465111 C158.431854,93.7622223 158.490252,93.7779334 158.54865,93.79299" id="Fill-93" fill="#FFFFFF"></path>
                <g id="Group-97" transform="translate(0.000000, 78.260870)">
                    <mask id="mask-6" fill="white">
                        <use xlink:href="#path-5"></use>
                    </mask>
                    <g id="Clip-96"></g>
                    <path d="M50.9812518,33.3679348 C49.7967847,33.3679348 49.6787272,31.3358883 49.6787272,30.387425 C49.6787272,24.0197339 53.1127735,13.2258808 57.375817,13.2258808 C58.2644916,13.2258808 58.4422265,14.0838268 58.4422265,14.8066529 C58.4422265,16.2969078 57.4354944,18.4194715 56.961967,19.6388306 C57.5542006,20.3163981 58.1457854,20.4521739 58.7380189,20.5420352 C58.7380189,22.5740817 54.0604769,33.3679348 50.9812518,33.3679348 M37.954709,13.1806222 C38.3101788,12.5483133 38.6059712,12.3679348 38.8427349,12.3679348 C39.139176,12.3679348 39.5536746,12.593572 39.5536746,14.4904985 C39.5536746,18.6451087 37.7769741,23.7481822 35.7044811,23.7481822 C34.5206627,23.7481822 34.2242216,22.6193403 34.2242216,22.6193403 C34.8754839,19.3226762 36.5341269,15.6193403 37.954709,13.1806222 M78.0410694,26.8198651 C77.8633345,28.6262744 76.7975736,33.5483133 73.1267637,33.5483133 C72.1790603,33.5483133 71.3500631,32.7356259 71.3500631,31.0649925 C71.2910344,27.5420352 74.0147896,18.7808846 75.7908415,13.812931 C76.3240463,12.2774175 71.3500631,12.1416417 71.4681206,12.1416417 C71.0542707,12.1416417 70.5800947,12.2321589 70.4030084,12.7293478 C69.2782188,15.7747939 66.7127384,25.0495315 66.4578121,30.0365067 C65.8318478,31.296533 64.9691199,32.1938343 63.889737,32.1938343 C62.6462412,32.1938343 61.9353015,31.5162669 61.9353015,30.026012 C61.9353015,27.812931 66.1399649,5.63883058 67.0279909,2.02535607 C67.2647546,1.07754873 65.1332328,0.489842579 63.0607398,0.489842579 C62.8233275,0.489842579 62.2317426,0.535101199 62.1130365,1.39304723 C61.817244,3.15485382 60.9882468,8.52882309 60.1592496,12.0511244 C60.1592496,12.0511244 58.6789902,10.9675412 56.8432609,10.9675412 C49.8214341,10.9675412 46.1811115,18.9488006 45.399467,25.204985 C44.7663675,25.2764805 44.7644215,25.6903673 44.7644215,25.6903673 C44.7644215,28.6708771 41.0929628,34.3163981 36.5341269,34.3163981 C33.5139306,34.3163981 32.4481697,32.7356259 32.4481697,30.6130622 C32.4481697,26.954985 33.5139306,24.5615255 33.5139306,24.5615255 C33.5139306,24.5615255 34.4019565,26.458452 36.9479769,26.458452 C41.6261676,26.458452 43.6980119,21.2196027 43.6980119,15.4389618 C43.6980119,11.2836957 41.0929628,9.92921664 38.8427349,9.92921664 C33.6319881,9.92921664 28.7176823,21.5357571 28.7176823,29.0775487 C28.7176823,29.8856447 28.8078471,30.6425787 28.9706627,31.3483508 C28.3933485,32.0062406 27.6597055,32.5099888 26.7638955,32.5099888 C25.1059011,32.5099888 24.3359327,31.3811469 24.3359327,29.0775487 C24.3359327,24.0197339 27.4741865,17.2001124 27.9483626,12.593572 C28.1254488,11.1485757 25.4016935,10.3352324 23.8033766,10.3352324 C23.2701718,10.3352324 22.7376157,10.3352324 22.500852,10.741904 C19.1848633,15.6193403 17.2304278,21.3999813 14.9801999,26.4131934 L14.7434362,26.4131934 C14.8621424,22.8456334 15.8098457,17.8324213 16.1653156,14.6256184 C16.3424018,13.1806222 13.9741164,12.593572 12.3751508,12.593572 C11.8425947,12.593572 11.3093899,12.593572 11.0726262,13.0002436 C9.23689691,16.3421664 7.16440393,20.9933096 4.91482468,26.0065217 L4.67806101,26.0065217 C4.67806101,23.0712706 6.51314165,17.2906297 7.6976087,12.8192091 C7.87534362,12.1416417 5.97993689,11.238437 4.14485624,11.238437 C2.78265428,11.238437 -0.00012973352,22.1228073 -0.00012973352,29.9354948 C-0.00012973352,33.6388306 1.30304348,35.8066529 3.96712132,35.8066529 C5.21061711,35.8066529 5.97993689,35.1290855 5.97993689,35.1290855 C5.9215568,30.883958 8.76336957,24.1548538 10.5990989,20.1806222 L11.131655,20.1806222 C10.717805,23.7481822 10.4803927,27.9939655 10.5394215,31.741904 C10.5990989,35.1743441 11.0726262,37.1165292 13.7367041,37.1165292 C14.9801999,37.1165292 15.7501683,36.4389618 15.7501683,36.4389618 C15.6911396,32.1938343 18.4739236,23.7481822 20.9018864,19.7293478 L21.6128261,19.7293478 C21.0205926,22.0322901 19.8361255,26.7293478 19.8361255,28.6708771 C19.8361255,32.3296102 20.9609151,35.5810157 24.987195,35.5810157 C27.0369846,35.5810157 28.694979,34.7302849 29.8476613,33.6362069 C31.4135449,36.4153486 34.4071459,37.9292166 37.5402104,37.9292166 C41.7610905,37.9292166 44.5879839,35.1907421 46.0721353,32.1905547 C47.0581101,34.6312406 49.0021669,36.6199963 52.3434537,36.6199963 C55.0075316,36.6199963 57.2577595,33.5483133 58.0277279,31.9229385 L58.2054628,31.9229385 C58.2054628,33.7293478 59.7447511,35.2648613 62.2907714,35.2648613 C64.1485554,35.2648613 65.6521669,34.3937969 66.7782539,33.2046102 C67.4321108,35.1900862 69.0219951,36.2133246 71.527798,36.2133246 C78.1007468,36.2133246 80.2322686,31.0197339 80.2322686,28.1743441 C80.2322686,26.3679348 78.0410694,26.8198651 78.0410694,26.8198651" id="Fill-95" fill="#FFFFFF" mask="url(#mask-6)"></path>
                </g>
                <path d="M75,88.0434783 C76.8008201,88.0434783 78.2608696,86.5834288 78.2608696,84.7826087 C78.2608696,82.9817886 76.8008201,81.5217391 75,81.5217391 C73.1991799,81.5217391 71.7391304,82.9817886 71.7391304,84.7826087 C71.7391304,86.5834288 73.1991799,88.0434783 75,88.0434783" id="Fill-98" fill="#FFFFFF"></path>
            </g>
        </g>
    </g>
</svg>