<?xml version="1.0" encoding="UTF-8"?>
<svg width="193px" height="160px" viewBox="0 0 193 160" version="1.1" xmlns="http://www.w3.org/2000/svg" xmlns:xlink="http://www.w3.org/1999/xlink">
    <!-- Generator: Sketch 54.1 (76490) - https://sketchapp.com -->
    <title>Group 14@2x</title>
    <desc>Created with Sketch.</desc>
    <g id="Page-1" stroke="none" stroke-width="1" fill="none" fill-rule="evenodd">
        <g id="empty-no-emprendos" transform="translate(-100.000000, -156.000000)" fill="#CDCDCD">
            <g id="Group-14" transform="translate(100.000000, 156.000000)">
                <path d="M47.4128823,97.491483 L49.2376154,94.6546021 C49.1849538,94.5843213 49.2890995,94.4555752 49.2376154,94.3847046 L46.5603008,94 C28.8039284,94 11.1858513,107.805773 6.88002743,125.094447 L0.212897875,151.864197 C-0.844935903,156.111594 2.16101659,160 6.5306986,160 L129.468816,160 C133.842173,160 136.845461,156.115652 135.786616,151.864197 L129.119487,125.094447 C124.815184,107.81188 107.192423,94 89.4392136,94 L88.5609891,94 C88.509502,94.0708747 86.4929884,94.3144239 86.4403268,94.3847046 L89.0331009,97.491483 L87.0352099,95.8349295 C86.3393792,96.5714022 85.5742243,97.265997 84.7472002,97.9129314 L84.8221879,98.3043478 L89.4392136,98.3043478 C105.227949,98.3043478 121.133143,110.775091 124.959447,126.138405 L131.626577,152.908155 C132.009995,154.447647 131.0476,155.695652 129.468816,155.695652 L6.5306986,155.695652 C4.95558238,155.695652 3.99053286,154.44358 4.37293739,152.908155 L11.0400669,126.138405 C14.8686153,110.76608 30.7713848,98.3043478 46.5603008,98.3043478 L51.1773264,98.3043478 L51.2523142,97.9129314 C50.4252901,97.265997 49.6601352,96.5714022 48.9643044,95.8349295 L47.4128823,97.491483 Z" id="Shape" fill-rule="nonzero"></path>
                <path d="M37,67.0662159 C37.2244968,67.9464706 37.695584,69.4221733 38.4550609,71.2982616 C39.7142385,74.4087293 41.3459938,77.5189321 43.3986311,80.4330132 C49.3431379,88.8722907 57.5632909,94 68.2833634,94 C78.9397573,94 87.044121,89.5126402 92.8256605,82.0944197 C94.8329321,79.5189148 96.4119962,76.7681028 97.6152723,74.0155297 C98.3430672,72.3506512 98.7890747,71.0364198 99,70.2435685 L94.8651307,69.1343788 C94.8311474,69.2621194 94.7475096,69.5406744 94.609237,69.9481162 C94.3712193,70.6494729 94.068502,71.4367822 93.6963514,72.2881011 C92.6289767,74.7297906 91.2263491,77.1732411 89.455251,79.4457147 C84.4414489,85.8788611 77.5361161,89.7023213 68.2833634,89.7023213 C59.0942894,89.7023213 52.0943226,85.3357609 46.8927821,77.9512554 C45.0443028,75.3270125 43.5628518,72.5032967 42.4198641,69.6798458 C42.020557,68.6934626 41.6929271,67.7801632 41.4327174,66.9650442 C41.3429897,66.6839677 41.2684184,66.4366503 41.208448,66.2262227 C41.1743919,66.1067245 41.1537863,66.030275 41.1460651,66 L37,67.0662159 L37,67.0662159 Z" id="Shape" fill-rule="nonzero"></path>
                <path d="M42.3814588,49.4778414 C42.036556,50.80165 41.8033327,52.3195292 41.6789787,53.9921437 C41.4450931,57.1380049 41.6039241,60.5837189 42.0149063,63.9443415 C42.1117426,64.7361774 42.2151134,65.4572431 42.3177095,66.0907235 C42.3772475,66.4583412 42.4214807,66.7061513 42.4430245,66.8176023 C43.3096298,71.3007571 37.5868983,73.9079042 34.8142683,70.2930912 C34.7047562,70.150315 34.5567357,69.9424949 34.3762732,69.6684514 C34.1112366,69.2659768 33.8258804,68.7949238 33.5262971,68.2541821 C32.710587,66.7818422 31.9106307,65.0171677 31.1751262,62.9522826 C28.7713401,56.203796 27.5358507,47.7302402 28.0362907,37.4513498 C28.4656641,28.6321465 31.6358478,21.1539698 36.6265195,15.0364041 C38.5068671,12.7314739 40.5213634,10.7793213 42.5461995,9.1637303 C43.2658412,8.58953729 43.9410183,8.09527079 44.5568096,7.67922589 C44.9508993,7.4129684 45.2549188,7.22243266 45.4540637,7.10614578 L45.3277251,7.18286299 C45.7371079,6.92453198 46.4359643,6.51965225 47.396684,6.01785738 C48.9540445,5.20443018 50.7152132,4.39597689 52.6536614,3.64296377 C63.1919775,-0.450769662 74.3044818,-1.35240051 84.8638288,3.06234515 C89.6884778,5.07947731 94.1746832,8.16372461 98.2427751,12.3793916 C103.831167,18.1705095 107.307173,25.0262406 108.897205,32.6577591 C110.961196,42.5640917 109.782211,52.9838732 106.594568,63.0761398 C105.87263,65.3618402 105.097899,67.4521411 104.319603,69.3092546 C103.842852,70.4468419 103.461699,71.271386 103.224845,71.7441837 C101.044724,76.0960526 94.4928051,74.0686533 95.1164351,69.2351502 C95.1155413,69.2420779 95.121709,69.1807602 95.1303255,69.0573375 C95.2010135,68.0448016 95.1595026,66.7155885 94.9139983,65.2034978 C94.557046,63.0049854 93.827012,60.8538499 92.644945,58.855242 C90.5957054,55.390441 87.3181686,52.5803798 82.4370203,50.6314963 C77.9741229,48.8496067 73.4821691,46.736055 69.0089935,44.3597544 C64.031986,41.7158014 59.333641,38.8868066 55.0503372,36.0558618 C53.5476962,35.0627281 52.2020781,34.1386678 51.0309035,33.3065676 C50.318204,32.8002063 49.8154582,32.4319691 49.540214,32.2247598 L55.1033996,31.8736271 C55.012999,31.9613997 54.8256316,32.1469019 54.5553558,32.4203914 C54.0948177,32.8864057 53.57905,33.4213071 53.0221916,34.0151998 C51.4300081,35.7132725 49.8380638,37.5328113 48.3613355,39.3900296 C46.8254329,41.3216691 45.5076867,43.1792531 44.4777741,44.9005807 C43.4198187,46.6687773 42.707015,48.2282893 42.3814588,49.4778414 Z M38.8846505,47.8143655 C41.0117492,39.6431084 52.7107919,28.2744056 52.7107919,28.2744056 C52.7107919,28.2744056 67.0904377,39.108986 84.4542667,46.0477509 C101.818096,52.9865159 99.7359889,69.1379393 99.7359889,69.1379393 C99.7359889,69.1379393 116.145235,36.3543397 95.5311921,14.9741523 C74.9171494,-6.4060352 48.2297268,10.4488706 48.2297268,10.4488706 C48.2297268,10.4488706 33.9206427,18.8115629 33.0288358,37.1447429 C32.0127792,58.0321702 38.8846505,66.999058 38.8846505,66.999058 C38.8846505,66.999058 36.7575518,55.9856226 38.8846505,47.8143655 Z" id="Shape" fill-rule="nonzero"></path>
                <path d="M48.1979485,97.1069075 L66.0066657,136.742336 C66.4970456,137.833736 67.7442031,138.304522 68.79227,137.793867 C69.8403368,137.283213 70.2924314,135.984492 69.8020515,134.893092 L51.9933343,95.2576635 C51.5029544,94.1662644 50.2557969,93.695478 49.20773,94.2061326 C48.1596632,94.7167873 47.7075686,96.0155084 48.1979485,97.1069075 L48.1979485,97.1069075 Z" id="Shape" fill-rule="nonzero"></path>
                <path d="M66.2308921,97.1651024 L85.9316218,136.800616 C86.4663291,137.876383 87.7588454,138.308424 88.8185379,137.765605 C89.8782305,137.222787 90.3038151,135.910665 89.7691079,134.834898 L70.0683782,95.1993837 C69.5336709,94.1236167 68.2411546,93.6915763 67.1814621,94.2343945 C66.1217695,94.7772128 65.6961849,96.0893354 66.2308921,97.1651024 L66.2308921,97.1651024 Z" id="Shape" fill-rule="nonzero" transform="translate(78.000000, 116.000000) scale(-1, 1) translate(-78.000000, -116.000000) "></path>
                <path d="M34.0339235,122.315409 L27.157095,138.874584 C26.6081735,140.196369 27.5607526,141.648692 29.0357987,141.738899 C29.1123388,141.743579 29.2619078,141.752862 29.4796314,141.766585 C29.8433035,141.789507 30.2653903,141.816548 30.7410164,141.847546 C32.1007434,141.936165 33.6161923,142.038679 35.2483329,142.153797 C39.9105634,142.482633 44.5723339,142.846406 48.9202465,143.234614 C58.8670582,144.122723 65.842504,145.036708 67.5882664,145.757349 C69.0382912,146.355911 70.6534958,146.447036 72.6152495,146.179088 C73.901764,146.003367 74.2170513,145.931974 77.6366239,145.102125 C82.537127,143.912891 85.2953916,143.651025 88.2198743,144.460262 C89.0771267,144.697474 89.9049778,145.032774 90.7113064,145.476571 C92.9085246,146.685904 94.7781093,148.19569 96.35014,149.940822 C97.8484681,151.604137 98.9986035,153.38921 99.8414222,155.169914 C100.13372,155.787481 100.365746,156.356816 100.542963,156.861475 C100.64368,157.148285 100.701137,157.338348 100.721066,157.415128 C101.011953,158.535842 102.191006,159.217231 103.354554,158.937053 C104.518102,158.656874 105.225534,157.521226 104.934647,156.400512 C104.768855,155.761757 104.406639,154.730282 103.793388,153.434607 C102.786365,151.306972 101.418329,149.183706 99.6307019,147.199237 C97.7472638,145.108407 95.5015771,143.294898 92.8661669,141.844389 C91.7567783,141.23379 90.6079591,140.768489 89.4191292,140.439526 C85.5422969,139.366763 82.1764498,139.686312 76.5754961,141.045529 C71.7580148,142.214616 70.4608994,142.391784 69.2991604,141.912225 C66.91926,140.929816 59.9851618,140.021248 49.321141,139.069102 C44.9421138,138.678117 40.2535917,138.312255 35.5655297,137.981598 C33.9250678,137.865893 32.4016717,137.762841 31.03423,137.67372 C30.555347,137.642509 30.1300636,137.615264 29.7632441,137.592143 C29.5426727,137.57824 29.3903052,137.568784 29.3110071,137.563935 L31.1897108,140.428249 L38.0665393,123.869074 C38.5119698,122.796492 37.9703307,121.579193 36.8567546,121.150161 C35.7431785,120.721128 34.479354,121.242828 34.0339235,122.315409 L34.0339235,122.315409 Z" id="Shape" fill-rule="nonzero"></path>
                <path d="M158.247333,59.6305251 L164.458465,59.6305251 C180.179947,59.6305251 192.926326,46.984229 192.926326,31.3842322 C192.926326,15.7808054 180.180831,3.13793932 164.458465,3.13793932 L137.394187,3.13793932 C121.672705,3.13793932 108.926326,15.7842354 108.926326,31.3842322 C108.926326,46.987659 121.671822,59.6305251 137.394187,59.6305251 L143.605319,59.6305251 L147.906534,63.897256 C149.573976,65.5513303 152.278333,65.5516706 153.946119,63.897256 L158.247333,59.6305251 L158.247333,59.6305251 Z M126.926326,41.1379393 C121.267207,40.8798735 118.267237,37.9121613 117.926326,32.2347135 C118.335419,26.6217822 121.335389,23.5895545 126.926326,23.1379393 C132.449081,23.5895545 135.449051,26.6217822 135.926326,32.2347135 C135.517233,37.9121613 132.517263,40.8798735 126.926326,41.1379393 L126.926326,41.1379393 Z M142.426326,27.1379393 C146.36574,27.5379413 148.532385,29.9045843 148.926326,34.2379393 C148.598042,38.6379613 146.431397,40.9379383 142.426326,41.1379393 C138.355599,40.9379383 136.188954,38.6379613 135.926326,34.2379393 C136.254611,29.9045843 138.421256,27.5379413 142.426326,27.1379393 L142.426326,27.1379393 Z M150.926326,44.0705818 L150.926326,29.3037424 C150.926326,28.0567586 151.550057,27.3676464 152.797538,27.2363849 C153.782392,27.3020156 154.373295,27.8270536 154.570266,28.8115144 C155.226834,27.7614228 156.375813,27.20357 158.017235,27.1379393 C161.628364,27.4004622 163.598042,29.7959478 163.926326,34.3244678 C163.532385,38.5248342 161.52988,40.7234306 157.91875,40.9203227 C156.539956,40.854692 155.423805,40.4937284 154.570266,39.8374212 L154.570266,44.0705818 C154.504609,45.3831963 153.913705,46.0723086 152.797538,46.1379393 C151.550057,46.0066779 150.926326,45.3175656 150.926326,44.0705818 L150.926326,44.0705818 Z M174.635064,29.7379393 C174.505614,30.8046113 174.020181,31.3712723 173.178753,31.4379393 C172.919852,31.5046063 172.499145,31.3712743 171.916617,31.0379393 C171.010464,30.6379373 170.363221,30.4046063 169.97487,30.3379393 C169.133442,30.4046063 168.712734,30.7379363 168.712734,31.3379393 C168.712734,31.8046083 169.392339,32.3046033 170.751569,32.8379393 C173.534754,33.9712783 174.926326,35.3712643 174.926326,37.0379393 C174.667425,39.7046193 172.984594,41.0712723 169.877782,41.1379393 C166.835696,40.9379383 165.185227,40.0712803 164.926326,38.5379393 C165.055777,37.5379343 165.541209,36.9712733 166.382637,36.8379393 C166.835714,36.8379393 167.38587,37.0712703 168.033122,37.5379393 C168.809825,37.9379413 169.521792,38.1379393 170.169045,38.1379393 C171.075198,38.2046063 171.528268,37.8379433 171.528268,37.0379393 C171.528268,36.6379373 170.816301,36.1712753 169.392346,35.6379393 C166.673885,34.5712673 165.314676,33.1712813 165.314676,31.4379393 C165.444126,28.7712593 167.062233,27.3379403 170.169045,27.1379393 C172.95223,27.4046073 174.440888,28.2712653 174.635064,29.7379393 L174.635064,29.7379393 Z M177.926326,34.4762852 L177.926326,24.7995935 C177.926326,23.7569817 178.611004,23.2031025 179.98038,23.1379393 C181.133539,23.2682658 181.782181,23.822145 181.926326,24.7995935 L181.926326,34.4762852 C181.782181,35.5188969 181.133539,36.0727761 179.98038,36.1379393 C178.683076,36.0727761 177.998399,35.5188969 177.926326,34.4762852 L177.926326,34.4762852 Z M179.926326,41.1379393 C178.659653,41.0677635 177.992993,40.4361909 177.926326,39.2432025 C177.992993,37.9800383 178.659653,37.2782909 179.926326,37.1379393 C181.126332,37.2782909 181.792992,37.9800383 181.926326,39.2432025 C181.792992,40.4361909 181.126332,41.0677635 179.926326,41.1379393 L179.926326,41.1379393 Z M154.926326,34.5433447 C155.064258,36.8766897 156.064248,38.0748759 157.926326,38.1379393 C159.719439,38.0118126 160.719429,36.8451576 160.926326,34.6379393 C160.719429,32.4937845 159.719439,31.3271295 157.926326,31.1379393 C156.064248,31.2640661 155.064258,32.3991899 154.926326,34.5433447 L154.926326,34.5433447 Z M142.926326,31.1379393 C141.064248,31.2640661 140.064258,32.4307211 139.926326,34.6379393 C140.064258,36.9082209 141.064248,38.0748759 142.926326,38.1379393 C144.719439,38.0748759 145.719429,36.9082209 145.926326,34.6379393 C145.719429,32.4307211 144.719439,31.2640661 142.926326,31.1379393 L142.926326,31.1379393 Z M126.87478,38.1379393 C130.036308,38.0023454 131.72014,36.0023654 131.926326,32.1379393 C131.651411,28.3413102 129.967579,26.3413302 126.87478,26.1379393 C123.713252,26.3413302 122.063784,28.3413102 121.926326,32.1379393 C122.063784,36.0023654 123.713252,38.0023454 126.87478,38.1379393 L126.87478,38.1379393 Z" id="Rectangle-20"></path>
            </g>
        </g>
    </g>
</svg>