<?xml version="1.0" encoding="UTF-8"?>
<svg width="150px" height="170px" viewBox="0 0 150 170" version="1.1" xmlns="http://www.w3.org/2000/svg" xmlns:xlink="http://www.w3.org/1999/xlink">
    <!-- Generator: sketchtool 54.1 (76490) - https://sketchapp.com -->
    <title>016A6CAA-C38C-4F43-AD6D-3AF1C10A5AE9@2x</title>
    <desc>Created with sketchtool.</desc>
    <g id="Page-1" stroke="none" stroke-width="1" fill="none" fill-rule="evenodd">
        <g id="UI-KIT" transform="translate(-65.000000, -300.000000)" fill-rule="nonzero">
            <g id="Group-2" transform="translate(65.000000, 300.000000)">
                <g id="icons8-mailbox_with_letter_filled" fill="#CDCDCD">
                    <path d="M97.826087,0 L97.826087,20 L104.347826,20 L104.347826,13.3333333 L117.391304,13.3333333 L117.391304,0 L97.826087,0 Z M104.347826,20 L104.347826,44.2708333 C106.296704,45.4296867 107.608696,47.5390633 107.608696,50 C107.608696,53.6848967 104.691747,56.6666667 101.086957,56.6666667 C97.4821663,56.6666667 94.5652174,53.6848967 94.5652174,50 C94.5652174,47.5390633 95.8772087,45.4296867 97.826087,44.2708333 L97.826087,20 L66.236413,20 C75.484037,26.6406267 81.5217391,37.6041667 81.5217391,50 L81.5217391,100 L3.26086957,100 C1.46484457,100 0,101.484377 0,103.333333 C0,105.182293 1.46484457,106.666667 3.26086957,106.666667 L146.73913,106.666667 C148.547896,106.666667 150,105.182293 150,103.333333 L150,50 C150,33.4635433 136.841883,20 120.652174,20 L104.347826,20 Z M47.2826087,20.1041667 C31.8571663,20.9765633 19.5652174,34.0234367 19.5652174,50 L19.5652174,93.3333333 L42.3913043,93.3333333 L42.3913043,54.2708333 L75,77.1875 L75,69.0625 L43.1046196,46.6666667 L74.7961957,46.6666667 C73.2294489,32.2395833 61.6126011,20.91146 47.2826087,20.1041667 Z M84.7826087,113.333333 L84.7826087,140 L104.347826,140 L104.347826,113.333333 L84.7826087,113.333333 Z" id="Shape"></path>
                </g>
                <g id="Group" transform="translate(2.000000, 31.000000)">
                    <path d="M136.83446,126.306117 C136.83446,126.306117 136.83446,126.345661 136.83446,126.306117 C139.721847,129.232432 139.721847,133.938265 136.83446,136.825036 C135.37099,138.288193 133.472434,139 131.573878,139 C129.675322,139 127.776766,138.288193 126.313296,136.825036 L95.1848901,105.703272 L92.4952693,103.014225 L90.7944796,101.313798 L92.8908017,99.2179232 L88.3817315,94.7098151 C78.3747599,103.172404 66.0341467,107.403698 53.6935335,107.403698 C39.9685566,107.403698 26.2040265,102.144239 15.7224159,91.6648649 C-5.24080529,70.7061166 -5.24080529,36.6975818 15.7224159,15.7388336 C26.2040265,5.25945946 39.9685566,0 53.6935335,0 C67.4185104,0 81.1830405,5.25945946 91.6646511,15.7388336 C111.599488,35.6694168 112.588319,67.3052632 94.7102511,88.3826458 L99.2193213,92.8907539 L101.315643,90.7948791 L102.106708,91.5857752 L103.016433,92.4953058 L105.706054,95.1843528 L136.83446,126.306117 Z M85.5544735,85.8488363 C102.957626,68.3553627 102.957626,39.9779406 85.5544735,22.524045 C76.8528974,13.7773082 65.4739133,9.42372881 54.0555556,9.42372881 C42.6765715,9.42372881 31.2582137,13.7773082 22.5566376,22.524045 C5.15348546,40.0175186 5.15348546,68.3553627 22.5566376,85.8488363 C31.2582137,94.5955731 42.6371978,98.9491525 54.0555556,98.9491525 C65.4345397,98.9491525 76.8528974,94.5955731 85.5544735,85.8488363 Z" id="Shape" fill="#CDCDCD"></path>
                    <ellipse id="Oval" fill="#FFFFFF" opacity="0.697707403" cx="54" cy="54" rx="44" ry="45"></ellipse>
                </g>
            </g>
        </g>
    </g>
</svg>