<?xml version="1.0" encoding="UTF-8" standalone="no"?>
<svg
   xmlns:dc="http://purl.org/dc/elements/1.1/"
   xmlns:cc="http://creativecommons.org/ns#"
   xmlns:rdf="http://www.w3.org/1999/02/22-rdf-syntax-ns#"
   xmlns:svg="http://www.w3.org/2000/svg"
   xmlns="http://www.w3.org/2000/svg"
   xmlns:sodipodi="http://sodipodi.sourceforge.net/DTD/sodipodi-0.dtd"
   xmlns:inkscape="http://www.inkscape.org/namespaces/inkscape"
   width="52"
   height="32"
   viewBox="0 0 52 32"
   version="1.1"
   id="svg30"
   sodipodi:docname="logoheader.svg"
   inkscape:export-filename="/home/leo/Documentos/DBase/team-dbase-medic/app-medic/src/assets/imgs/logomini.png"
   inkscape:export-xdpi="95.400002"
   inkscape:export-ydpi="95.400002"
   inkscape:version="0.92.1 r15371">
  <metadata
     id="metadata36">
    <rdf:RDF>
      <cc:Work
         rdf:about="">
        <dc:format>image/svg+xml</dc:format>
        <dc:type
           rdf:resource="http://purl.org/dc/dcmitype/StillImage" />
        <dc:title></dc:title>
      </cc:Work>
    </rdf:RDF>
  </metadata>
  <defs
     id="defs34" />
  <sodipodi:namedview
     pagecolor="#ffffff"
     bordercolor="#666666"
     borderopacity="1"
     objecttolerance="10"
     gridtolerance="10"
     guidetolerance="10"
     inkscape:pageopacity="0"
     inkscape:pageshadow="2"
     inkscape:window-width="1366"
     inkscape:window-height="704"
     id="namedview32"
     showgrid="false"
     inkscape:zoom="9.3357874"
     inkscape:cx="19.079485"
     inkscape:cy="12.979255"
     inkscape:window-x="0"
     inkscape:window-y="27"
     inkscape:window-maximized="1"
     inkscape:current-layer="g28" />
  <g
     id="g28"
     style="fill:none;fill-rule:evenodd"
     transform="translate(0,-111)">
    <path
       d="m 25.639319,131.98219 -0.189722,-0.0349 0.189722,0.0353 z m -0.06356,-0.0119 -0.06263,-0.0119 z m -0.03228,-0.51389 0.0018,0.002 z m 0.516225,0.52814 z m -0.395356,-0.0119 -0.239817,-0.0183 z"
       id="path2"
       inkscape:connector-curvature="0"
       style="stroke-width:0.47759736"
       inkscape:export-xdpi="292"
       inkscape:export-ydpi="292" />
    <path
       d="m 26.059719,131.96561 h -0.51527 c 0.170966,-0.002 0.343831,0 0.51527,0 z m -0.4204,0.0182 -0.189722,-0.0424 z"
       id="path4"
       inkscape:connector-curvature="0"
       style="stroke-width:0.47759736"
       inkscape:export-xdpi="292"
       inkscape:export-ydpi="292" />
    <path
       d="m 25.645096,131.98457 a 3.7883969,3.7263763 0 0 1 -0.201281,-0.0392 c 0.06695,0.0183 0.133877,0.0331 0.201281,0.0392 z m -0.0062,0.002 -0.189722,-0.0426 z"
       id="path6"
       inkscape:connector-curvature="0"
       style="stroke-width:0.47759736"
       inkscape:export-xdpi="292"
       inkscape:export-ydpi="292" />
    <path
       d="m 25.639319,124.96001 c -0.01606,-0.0867 -0.02219,-0.17995 -0.151663,-0.17995 a 0.05874981,0.05778798 0 0 0 -0.03661,0.0381 c -0.01368,0.12797 0.08579,0.13156 0.17333,0.14712 l 0.01368,-0.005 z m 0,7.01417 -0.189722,-0.0183 z m 0,-0.005 -0.189722,-0.006 z m 0,-0.005 h -0.189722 z m 0.02444,0.0595 c -0.0838,-0.0377 -0.158896,-0.0785 -0.23832,-0.11871 0.07989,0.0408 0.158895,0.0818 0.23832,0.11849 z m 0.39631,-0.47315 z"
       id="path8"
       inkscape:connector-curvature="0"
       style="fill:#10cfc9;fill-rule:nonzero;stroke-width:0.47759736"
       inkscape:export-xdpi="292"
       inkscape:export-ydpi="292" />
    <path
       d="m 25.670132,131.99923 c -0.0838,-0.0183 -0.167528,-0.0447 -0.251816,-0.0685 0.08181,0.0238 0.166146,0.0485 0.251816,0.0685 z m -0.03131,-0.0183 -0.189721,-0.0298 z"
       id="path10"
       inkscape:connector-curvature="0"
       style="fill:#10cfc9;fill-rule:nonzero;stroke-width:0.47759736"
       inkscape:export-xdpi="292"
       inkscape:export-ydpi="292" />
    <path
       d="m 32.720588,112.7213 0.06835,-0.0132 z m 0.969372,0.0134 0.18972,-0.0424 z m 0,-0.002 0.18972,-0.0352 z m 1.124913,0.002 z m 0.394395,-0.0119 0.241253,-0.0182 z m 0.1204,-0.005 h 0.515267 a 5.8557144,5.7598494 0 0 0 -0.515267,0 z m -0.614946,0.0134 0.200316,-0.0366 -0.200316,0.0368 z m -0.509968,0.002 0.19024,-0.0446 z"
       id="path12"
       inkscape:connector-curvature="0"
       style="stroke-width:0.47759736"
       inkscape:export-xdpi="292"
       inkscape:export-ydpi="292" />
    <path
       d="m 39.32175,133.73385 c 1.380141,-0.5992 2.029762,-2.1391 1.476449,-3.49946 l -1.320903,-3.2333 a 0.21669991,0.21315234 0 0 1 0.02147,-0.19892 1.2472287,1.22681 0 0 0 -0.09963,-1.49683 1.3054969,1.2841244 0 0 0 -1.517864,-0.31787 1.2602305,1.2395993 0 0 0 -0.732445,1.32207 c 0.08906,0.54945 0.544638,0.9748 1.116244,1.04302 0.08181,0.006 0.152164,0.0624 0.183001,0.13621 l 1.286237,3.14993 c 0.341903,0.83842 -0.08426,1.78572 -0.951557,2.11681 l -0.578832,0.22023 c -0.86824,0.32965 -1.84917,-0.0818 -2.192519,-0.91889 l -1.326633,-3.24653 a 0.21910774,0.21552069 0 0 1 0.01935,-0.19687 c 0.308206,-0.46898 0.256638,-1.07858 -0.125708,-1.49355 a 1.3050152,1.2836507 0 0 0 -1.521717,-0.2932 1.2587859,1.2381783 0 0 0 -0.709807,1.33248 c 0.0977,0.54707 0.560046,0.96535 1.131651,1.02457 0.08384,0.006 0.15511,0.0616 0.185403,0.13672 l 1.280945,3.14041 c 0.568716,1.38836 2.184333,2.08084 3.631889,1.55744 l 1.07049,2.62084 c 0,0.0119 0.0094,0.0182 0.0134,0.0303 0.0049,0.0119 0.281705,0.57694 0.06455,1.1188 -0.147369,0.37091 -0.499854,0.66504 -1.048347,0.8735 -1.385433,0.5276 -1.995558,-0.82421 -2.058645,-0.97677 l -0.717525,-1.79663 c -0.05011,-0.14474 -0.379461,-1.02027 -1.10372,-1.34948 a 1.3892875,1.3665433 0 0 0 -1.104209,-0.0183 l -1.200513,0.45662 a 0.38957832,0.38320051 0 0 0 -0.225345,0.49978 0.40161724,0.39504233 0 0 0 0.51719,0.21788 l 1.201478,-0.458 c 0.149284,-0.0662 0.320726,-0.0662 0.469999,0 0.369843,0.16518 0.623136,0.70903 0.690068,0.90659 l 0.008,0.0183 0.721373,1.80753 c 0.316389,0.77543 1.371467,2.07042 3.094461,1.41344 0.768087,-0.29081 1.270351,-0.73281 1.500533,-1.31351 0.321145,-0.80707 -0.02219,-1.58775 -0.08521,-1.71942 l -1.063762,-2.61702 z"
       id="path14"
       inkscape:connector-curvature="0"
       style="fill:#ff5100;fill-rule:nonzero;stroke-width:0.47759736"
       inkscape:export-xdpi="292"
       inkscape:export-ydpi="292" />
    <path
       d="m 27.691542,124.30639 3.926703,-1.52525 -1.546204,-3.86562 c -0.594193,-1.48783 0.147116,-3.16891 1.656913,-3.75668 l 0.556353,-0.21703 c 1.511633,-0.58453 3.218532,0.14545 3.816461,1.63228 l 1.547605,3.86658 3.927171,-1.52521 c 1.511162,-0.58498 3.218057,0.14491 3.815055,1.63179 l 0.219579,0.54807 c 0.593724,1.48825 -0.147608,3.16878 -1.657854,3.75758 l -2.600052,1.0094 a 2.3076262,2.3399386 0 0 0 -0.295686,-1.50912 l 2.33378,-0.90562 c 0.721721,-0.28241 1.076271,-1.08569 0.792716,-1.79764 l -0.219553,-0.54801 c -0.285886,-0.71144 -1.102427,-1.06102 -1.826014,-0.78108 l -1.641507,0.63705 -2.867247,1.11365 -0.845502,0.32824 -0.278864,-0.69632 -0.246137,-0.60392 -1.590111,-3.97127 c -0.285884,-0.71097 -1.102433,-1.06005 -1.825546,-0.78058 l -0.556352,0.21561 c -0.722185,0.28176 -1.076737,1.08567 -0.793193,1.79758 l 1.83209,4.5748 0.279306,0.69672 -0.225138,0.0882 -3.487597,1.35423 -1.641493,0.63664 c -0.722653,0.28146 -1.0772,1.08566 -0.792725,1.79756 l 0.219578,0.54807 c 0.286359,0.71098 1.102434,1.06053 1.825551,0.78059 l 2.337048,-0.90753 c 0.02593,0.10983 0.0598,0.21791 0.101852,0.3235 a 2.3739583,2.4072003 0 0 0 0.728721,0.98096 l -2.599581,1.00894 c -1.511168,0.58495 -3.218061,-0.14491 -3.81506,-1.63183 l -0.219572,-0.54804 c -0.594196,-1.48734 0.145734,-3.16746 1.654575,-3.75719 z M 15.479813,138.55062 H 10.20917 a 1.4261503,1.44612 0 0 0 -0.7707625,0.21609 c -0.489555,0.31648 -0.7072339,0.9076 -0.5353326,1.45418 0.1400815,0.4846 0.6647288,0.85596 1.2411661,0.86021 0.896419,0.005 1.791913,0 2.688335,0 h 2.63462 a 1.3467379,1.3655958 0 0 0 0.727328,-0.17766 c 0.534863,-0.33296 0.75909,-0.89855 0.58718,-1.46177 -0.162544,-0.51912 -0.686217,-0.88906 -1.301891,-0.89047 z m -1.444838,-23.31604 c 1.03563,0.0133 2.071725,0.0166 3.107356,0 0.849242,-0.0134 1.369623,-0.9009 1.141205,-1.60905 -0.157891,-0.48455 -0.478347,-0.75078 -0.926322,-0.90187 -0.255023,0.0166 -0.509183,-0.031 -0.767032,0.0572 -0.147125,0.0514 -0.315799,-0.0693 -0.484415,-0.0665 -0.734331,0.0119 -1.468193,0 -2.202521,0 -0.754419,0.18063 -1.12579,0.70577 -1.052452,1.48639 0.04995,0.53101 0.594194,1.02788 1.184181,1.03402 z m -10.6248902,7.67065 a 9.9550238,10.094421 0 0 0 -2.0142683,-0.0134 c -0.64277216,0.0509 -1.0744007,0.63144 -1.04263553,1.29221 0.0373674,0.70627 0.52271975,1.18892 1.19912363,1.19368 h 0.8025319 c 0.2998962,0 0.5997957,0.005 0.8996929,0 0.5512146,-0.0119 1.0571171,-0.52202 1.0907506,-1.09089 0.042044,-0.72046 -0.3372683,-1.30449 -0.9351952,-1.38075 z"
       id="path16"
       inkscape:connector-curvature="0"
       style="fill:#10cfc9;fill-rule:nonzero;stroke-width:0.47038987"
       inkscape:export-xdpi="292"
       inkscape:export-ydpi="292" />
    <path
       d="m 35.916125,111.19421 a 15.681919,15.686117 0 0 0 -7.204991,1.74166 h -6.405172 c -0.270356,0 -0.54126,-0.005 -0.811656,0 -0.355163,0.006 -0.681906,0.19618 -0.866589,0.49925 -0.247241,0.37232 -0.192296,0.78395 -0.149137,1.18942 0.04216,0.39118 0.372212,0.7242 0.753887,0.83223 0.345211,0.096 0.694684,0.0302 1.041794,0.0694 0.891686,0.10071 1.415898,1.1368 0.958932,1.9051 -0.27936,0.46988 -0.705586,0.67072 -1.237376,0.67072 h -9.767836 c -0.182296,0 -0.366523,-0.0119 -0.538893,0.0739 -0.66012,0.32973 -0.938567,1.24485 -0.560207,1.88334 0.200832,0.33861 0.483493,0.57694 0.895003,0.58306 0.523266,0.0134 1.047483,0.0134 1.567908,0.0134 a 1.3713864,1.3717537 0 0 1 0.749149,0.18888 c 0.502436,0.31973 0.75152,0.91844 0.603296,1.40584 -0.190858,0.62147 -0.665329,0.98383 -1.307929,0.98859 -0.384519,0.005 -0.768094,0 -1.155453,0 -1.85014,0 -3.7007548,0.006 -5.5513674,0 a 1.3192965,1.3196496 0 0 0 -1.3628635,1.22869 c -0.042622,0.7015 0.5895631,1.34996 1.2908839,1.34427 2.0428731,-0.0166 4.085743,-0.006 6.128622,-0.005 a 1.3789633,1.3793323 0 0 1 1.219377,0.7858 c 0.173296,0.40694 0.126016,0.87398 -0.12451,1.23823 a 1.29704,1.297387 0 0 1 -1.11283,0.56084 c -1.072579,-0.024 -2.145164,-0.005 -3.2177354,-0.005 H 5.9037782 c -0.941408,0 -1.5229208,0.82375 -1.3093519,1.62472 a 1.2951458,1.2954922 0 0 0 1.28662,0.9649 h 8.5901127 a 1.3121933,1.3125447 0 0 1 1.270517,1.23627 1.2866219,1.2869662 0 0 1 -0.359893,0.94538 1.2913574,1.2917031 0 0 1 -0.932884,0.39461 c -0.812122,0 -1.624263,-0.005 -2.435919,0 a 1.2785716,1.2789139 0 0 0 -1.276199,1.24622 c -0.01368,0.77015 0.554996,1.34193 1.349127,1.34387 h 4.63506 c 1.126088,0 2.252182,0.002 3.382532,0 0.317282,0 0.604719,0.0616 0.852382,0.26443 0.429984,0.35426 0.613713,0.9293 0.441343,1.40013 -0.177036,0.48785 -0.603767,0.90666 -1.237371,0.89144 -0.357524,-0.005 -0.716473,-0.0271 -1.072575,0.027 a 1.2946722,1.2950188 0 0 0 -0.92152,0.63376 1.2899367,1.2902821 0 0 0 -0.08287,1.11361 c 0.191785,0.46422 0.660117,0.82422 1.320241,0.81806 3.401,-0.006 6.801529,-0.0119 10.202528,-0.005 a 15.689493,15.693696 0 0 0 6.315195,1.31781 c 8.68766,0 15.731166,-7.03167 15.731166,-15.70605 0,-8.67432 -7.047768,-15.70311 -15.735425,-15.70311 z m 10.033467,25.72367 a 14.107381,14.111157 0 0 1 -10.033467,4.14937 h -0.409619 l -0.235316,-0.006 h -0.09 c -0.09944,-0.005 -0.197982,-0.0119 -0.29744,-0.0166 l -0.106129,-0.006 -0.197977,-0.0166 -0.136361,-0.0133 -0.174315,-0.0181 c -0.0824,-0.006 -0.164776,-0.0183 -0.247241,-0.0309 l -0.138786,-0.0183 -0.182292,-0.0271 -0.09947,-0.0166 c -0.224009,-0.0364 -0.446082,-0.0825 -0.667231,-0.12505 l -0.02694,-0.005 a 7.1671045,7.1690233 0 0 1 -0.234387,-0.052 11.581018,11.584118 0 0 1 -0.721207,-0.18752 c -6.243697,-1.80695 -10.460147,-7.61797 -10.234744,-14.10444 0.225377,-6.48692 4.834897,-11.99194 11.189873,-13.36225 l 0.02981,-0.005 a 15.484924,15.489071 0 0 1 0.660125,-0.12453 l 0.09797,-0.0133 c 0.0611,-0.006 0.121215,-0.0183 0.18232,-0.0271 l 0.138726,-0.0183 c 0.08236,-0.0119 0.16476,-0.0182 0.247624,-0.0305 l 0.17476,-0.0182 0.135914,-0.0133 0.197492,-0.0166 0.106991,-0.006 c 0.09946,-0.006 0.197933,-0.0133 0.296927,-0.0166 l 0.08859,-0.002 0.237722,-0.006 h 0.408201 c 5.737473,0.002 10.909529,3.454 13.10536,8.74685 a 14.146685,14.150471 0 0 1 -3.071871,15.43555 z M 32.912423,112.80703 Z"
       id="path18"
       inkscape:connector-curvature="0"
       style="fill:#10cfc9;fill-rule:nonzero;stroke-width:0.4736084"
       inkscape:export-xdpi="292"
       inkscape:export-ydpi="292" />
  </g>
</svg>
